<?xml version="1.0" standalone="no"?>
<!DOCTYPE svg PUBLIC "-//W3C//DTD SVG 20010904//EN"
 "http://www.w3.org/TR/2001/REC-SVG-20010904/DTD/svg10.dtd">
<svg version="1.0" xmlns="http://www.w3.org/2000/svg"
 width="700.000000pt" height="700.000000pt" viewBox="0 0 700.000000 700.000000"
 preserveAspectRatio="xMidYMid meet">
<metadata>
Created by potrace 1.14, written by Peter Selinger 2001-2017
</metadata>
<g transform="translate(0.000000,700.000000) scale(0.100000,-0.100000)"
fill="#000000" stroke="none">
<path d="M1539 6966 c-2 -2 -35 -6 -73 -10 -38 -4 -71 -8 -75 -10 -3 -2 -27
-7 -53 -10 -113 -15 -328 -92 -458 -164 -176 -97 -357 -246 -479 -396 -200
-245 -321 -533 -360 -856 -11 -89 -8 -4046 3 -4105 25 -139 40 -201 68 -285
146 -448 461 -794 902 -990 51 -23 119 -48 146 -55 8 -2 40 -11 70 -20 30 -8
69 -17 85 -20 17 -3 37 -8 45 -10 8 -2 42 -8 75 -12 74 -10 4056 -11 4140 -1
462 53 909 337 1162 736 99 156 187 374 219 537 2 11 6 31 9 45 2 14 8 48 12
75 10 61 11 4057 1 4135 -42 349 -207 686 -462 942 -48 48 -104 100 -124 115
-20 15 -39 30 -42 34 -3 3 -43 30 -90 61 -140 92 -326 175 -480 214 -218 54
-143 52 -2271 53 -1081 0 -1968 -1 -1970 -3z m2291 -1345 c250 -36 466 -108
662 -222 40 -23 75 -45 78 -48 3 -3 30 -25 60 -48 290 -218 462 -563 474 -947
l1 -31 -438 -1 c-301 0 -437 3 -438 10 -4 79 -14 145 -29 194 -53 173 -191
310 -372 367 -105 33 -170 42 -302 43 -317 1 -539 -105 -636 -302 -61 -123
-51 -295 22 -398 107 -149 292 -247 763 -403 378 -125 418 -141 620 -242 145
-72 211 -112 321 -194 334 -249 488 -555 486 -969 -2 -654 -502 -1091 -1320
-1156 -151 -12 -397 -6 -530 12 -26 4 -54 7 -62 8 -56 7 -128 21 -207 42 -478
125 -839 389 -1011 740 -83 170 -129 354 -128 518 l1 70 428 0 c236 1 432 -1
437 -4 4 -3 10 -41 14 -85 30 -354 242 -554 636 -604 133 -16 340 -11 446 13
214 47 358 167 404 336 18 66 16 196 -4 265 -67 228 -220 326 -841 535 -115
39 -223 77 -240 84 -16 7 -79 33 -140 56 -383 151 -678 364 -838 605 -128 192
-181 385 -173 625 11 312 136 568 381 776 224 191 598 334 943 360 48 4 88 8
90 9 9 8 369 -4 442 -14z"/>
</g>
</svg>
